<?xml version="1.0" encoding="utf-8"?>
<!-- Generator: Adobe Illustrator 19.0.0, SVG Export Plug-In . SVG Version: 6.00 Build 0)  -->
<svg version="1.1" id="Layer_1" xmlns="http://www.w3.org/2000/svg" xmlns:xlink="http://www.w3.org/1999/xlink" x="0px" y="0px"
	 viewBox="-21 23 20 20" style="enable-background:new -21 23 20 20;" xml:space="preserve">
<g>
	<path d="M-5,25h-12c-1.7,0-3,1.3-3,3v11c0,1.7,1.3,3,3,3h12c1.7,0,3-1.3,3-3V28C-2,26.3-3.3,25-5,25z M-3,39c0,1.1-0.9,2-2,2h-12
		c-1.1,0-2-0.9-2-2V28c0-1.1,0.9-2,2-2h12c1.1,0,2,0.9,2,2V39z"/>
	<rect x="-15" y="33" width="8" height="1"/>
	<rect x="-15" y="30" width="8" height="1"/>
	<rect x="-15" y="36" width="8" height="1"/>
</g>
</svg>
