<?xml version="1.0" encoding="utf-8"?>
<!-- Generator: Adobe Illustrator 19.0.0, SVG Export Plug-In . SVG Version: 6.00 Build 0)  -->
<svg version="1.1" id="Layer_1" xmlns="http://www.w3.org/2000/svg" xmlns:xlink="http://www.w3.org/1999/xlink" x="0px" y="0px"
	 viewBox="0 0 20 20" style="enable-background:new 0 0 20 20;" xml:space="preserve">
<g id="XMLID_34_">
	<path id="XMLID_119_" d="M10.5,4C9.1,4,8,5.1,8,6.5C8,7.9,9.1,9,10.5,9S13,7.9,13,6.5C13,5.1,11.9,4,10.5,4z M10.5,8
		C9.7,8,9,7.3,9,6.5C9,5.7,9.7,5,10.5,5S12,5.7,12,6.5C12,7.3,11.3,8,10.5,8z"/>
	<path id="XMLID_123_" d="M8,17h5v-7H8V17z M9,11h3v5H9V11z"/>
	<path id="XMLID_126_" d="M10.5,1C5.3,1,1,5.3,1,10.5c0,5.2,4.3,9.5,9.5,9.5s9.5-4.3,9.5-9.5C20,5.3,15.7,1,10.5,1z M10.5,19
		C5.8,19,2,15.2,2,10.5C2,5.8,5.8,2,10.5,2S19,5.8,19,10.5C19,15.2,15.2,19,10.5,19z"/>
</g>
</svg>
