<?xml version="1.0" encoding="utf-8"?>
<!-- Generator: Adobe Illustrator 19.0.0, SVG Export Plug-In . SVG Version: 6.00 Build 0)  -->
<svg version="1.1" id="Layer_1" xmlns="http://www.w3.org/2000/svg" xmlns:xlink="http://www.w3.org/1999/xlink" x="0px" y="0px"
	 viewBox="0 0 20 20" style="enable-background:new 0 0 20 20;" xml:space="preserve">
<path id="XMLID_3_" d="M17.1,15.8l-4.4-3v-1.4c0.8-0.7,1.3-1.7,1.3-2.8V5.8C14,3.7,12.3,2,10.2,2H9.8C7.7,2,6,3.7,6,5.8v2.7
	c0,1.1,0.6,2.1,1.3,2.8v1.4l-4.4,3c-0.5,0.3-0.9,1-0.9,1.5V19h1v-1.7c0-0.1,0.2-0.5,0.5-0.6l4.9-3.3V11L8,10.7c-0.6-0.6-1-1.4-1-2.1
	V5.8C7,4.3,8.3,3,9.8,3h0.3C11.7,3,13,4.3,13,5.8v2.7c0,0.7-0.4,1.5-1,2.1L11.7,11v2.4l4.8,3.3c0.3,0.2,0.5,0.5,0.5,0.7V19h1v-1.7
	C18,16.8,17.6,16.1,17.1,15.8z"/>
</svg>
