<?xml version="1.0" encoding="utf-8"?>
<!-- Generator: Adobe Illustrator 19.0.0, SVG Export Plug-In . SVG Version: 6.00 Build 0)  -->
<svg version="1.1" id="Layer_1" xmlns="http://www.w3.org/2000/svg" xmlns:xlink="http://www.w3.org/1999/xlink" x="0px" y="0px"
	 viewBox="0 0 20 20" style="enable-background:new 0 0 20 20;" xml:space="preserve">
<g id="XMLID_2_">
	<path id="XMLID_8_" d="M14,5h-1c0-1.7-1.3-3-3-3S7,3.3,7,5H6C4.9,5,4,5.9,4,7v10c0,1.1,0.9,2,2,2h8c1.1,0,2-0.9,2-2V7
		C16,5.9,15.1,5,14,5z M15,17c0,0.6-0.4,1-1,1H6c-0.6,0-1-0.4-1-1V7c0-0.6,0.4-1,1-1h2V5c0-1.1,0.9-2,2-2s2,0.9,2,2v1h2
		c0.6,0,1,0.4,1,1V17z"/>
	<rect id="XMLID_12_" x="7" y="8" width="6" height="1"/>
	<rect id="XMLID_13_" x="7" y="11" width="6" height="1"/>
	<rect id="XMLID_14_" x="7" y="14" width="6" height="1"/>
</g>
</svg>
