<?xml version="1.0" encoding="utf-8"?>
<!-- Generator: Adobe Illustrator 19.0.0, SVG Export Plug-In . SVG Version: 6.00 Build 0)  -->
<svg version="1.1" id="Layer_1" xmlns="http://www.w3.org/2000/svg" xmlns:xlink="http://www.w3.org/1999/xlink" x="0px" y="0px"
	 viewBox="-501 247 20 20" style="enable-background:new -501 247 20 20;" xml:space="preserve">
<g>
	<path d="M-490.5,252c-1.4,0-2.5,1.1-2.5,2.5c0,1.4,1.1,2.5,2.5,2.5s2.5-1.1,2.5-2.5C-488,253.1-489.1,252-490.5,252z M-490.5,256
		c-0.8,0-1.5-0.7-1.5-1.5s0.7-1.5,1.5-1.5s1.5,0.7,1.5,1.5S-489.7,256-490.5,256z"/>
	<path d="M-492,263h3v-5h-3V263z M-491,259h1v3h-1V259z"/>
	<path d="M-490.5,249c-4.7,0-8.5,3.8-8.5,8.5s3.8,8.5,8.5,8.5s8.5-3.8,8.5-8.5S-485.8,249-490.5,249z M-490.5,265
		c-4.1,0-7.5-3.4-7.5-7.5s3.4-7.5,7.5-7.5s7.5,3.4,7.5,7.5S-486.4,265-490.5,265z"/>
</g>
</svg>
