<?xml version="1.0" encoding="utf-8"?>
<!-- Generator: Adobe Illustrator 19.0.0, SVG Export Plug-In . SVG Version: 6.00 Build 0)  -->
<svg version="1.1" id="Layer_1" xmlns="http://www.w3.org/2000/svg" xmlns:xlink="http://www.w3.org/1999/xlink" x="0px" y="0px"
	 viewBox="0 0 32 32" style="enable-background:new 0 0 32 32;" xml:space="preserve">
<g id="XMLID_5_">
	<path id="XMLID_6_" d="M19,4c0-1.1-0.9-2-2-2h-2c-1.1,0-2,0.9-2,2v2h6V4z"/>
	<path id="XMLID_14_" d="M23,4h-2v4H11V4H9C6.8,4,5,5.8,5,8v18c0,2.2,1.8,4,4,4h14c2.2,0,4-1.8,4-4V8C27,5.8,25.2,4,23,4z M16,23h-6
		v-2h6V23z M22,19H10v-2h12V19z M22,15H10v-2h12V15z"/>
</g>
</svg>
