<?xml version="1.0" encoding="utf-8"?>
<!-- Generator: Adobe Illustrator 19.0.0, SVG Export Plug-In . SVG Version: 6.00 Build 0)  -->
<svg version="1.1" id="Layer_1" xmlns="http://www.w3.org/2000/svg" xmlns:xlink="http://www.w3.org/1999/xlink" x="0px" y="0px"
	 viewBox="-15 17 32 32" style="enable-background:new -15 17 32 32;" xml:space="preserve">
<g>
	<rect x="-8" y="24" width="1" height="20"/>
	<rect x="-7" y="44" width="16" height="1"/>
	<rect x="9" y="24" width="1" height="20"/>
	<rect x="-2" y="21" width="6" height="1"/>
	<polygon points="-3,26 5,26 5,24 9,24 9,23 5,23 5,22 4,22 4,25 -2,25 -2,22 -3,22 -3,23 -7,23 -7,24 -3,24 	"/>
	<polygon points="0.2,35.8 -2,33.7 -2.7,34.4 0.2,37.2 4.7,32.7 4,32 	"/>
</g>
</svg>
